<svg xmlns="http://www.w3.org/2000/svg" viewBox="0 0 100 100" width="100" height="100">
  <defs>
    <linearGradient id="group-gradient" x1="0%" y1="0%" x2="100%" y2="100%">
      <stop offset="0%" stop-color="#7454e2" />
      <stop offset="100%" stop-color="#e754ae" />
    </linearGradient>
  </defs>
  <circle cx="50" cy="50" r="50" fill="url(#group-gradient)" />
  <path d="M32,40 C32,36 36,32 43,32 C50,32 54,36 54,40 C54,44 50,52 43,52 C36,52 32,44 32,40 Z" fill="#ffffff" opacity="0.3" />
  <path d="M25,80 C25,68 32,60 43,60 C54,60 61,68 61,80 Z" fill="#ffffff" opacity="0.3" />
  <path d="M48,36 C48,32 52,28 60,28 C68,28 72,32 72,36 C72,40 68,48 60,48 C52,48 48,40 48,36 Z" fill="#ffffff" opacity="0.2" />
  <path d="M42,80 C42,68 50,60 60,60 C70,60 78,68 78,80 Z" fill="#ffffff" opacity="0.2" />
</svg> 